<svg width="32" height="32" viewBox="0 0 32 32" fill="none" xmlns="http://www.w3.org/2000/svg">
<rect x="4" y="9.33398" width="24" height="18.6667" rx="4" fill="#661AC6"/>
<path fill-rule="evenodd" clip-rule="evenodd" d="M8.21328 8.18141C5.09853 8.48428 2.66406 11.1099 2.66406 14.3042V23.7077C2.66406 27.1053 5.41838 29.8596 8.816 29.8596H23.1827C26.5803 29.8596 29.3346 27.1053 29.3346 23.7077V14.3042C29.3346 11.1107 26.9013 8.48551 23.7876 8.18162C23.769 8.1798 23.7503 8.17807 23.7316 8.17642C23.7099 7.96626 23.6741 7.76026 23.6252 7.55937C23.3447 6.40611 22.6338 5.4213 21.6722 4.78472C20.938 4.29866 20.0577 4.01562 19.1112 4.01562H12.8896C11.9432 4.01562 11.0628 4.29866 10.3286 4.7847C9.36706 5.42126 8.65614 6.40604 8.37565 7.55927C8.3268 7.76013 8.29101 7.9661 8.26922 8.17622C8.25055 8.17787 8.2319 8.1796 8.21328 8.18141ZM23.3421 10.7888H21.0551H10.9458H8.65723L8.50053 10.8026C6.70818 10.9605 5.30061 12.4694 5.30061 14.3042V23.7077C5.30061 25.6492 6.8745 27.2231 8.816 27.2231H23.1827C25.1242 27.2231 26.6981 25.6492 26.6981 23.7077V14.3042C26.6981 12.4698 25.2912 10.9612 23.4994 10.8027L23.3421 10.7888ZM20.4309 7.14638C20.0779 6.83859 19.6163 6.65217 19.1112 6.65217H12.8896C12.3845 6.65217 11.923 6.83859 11.57 7.14636C11.2705 7.40752 11.0492 7.75607 10.9458 8.15226H12.8896H19.1112H21.0551C20.9517 7.75607 20.7304 7.40754 20.4309 7.14638Z" fill="#661AC6"/>
<rect x="14.666" y="17.334" width="2.66667" height="4" rx="1.33333" fill="white"/>
<path d="M5.33398 14.666L10.6281 16.2542C11.4852 16.5114 12.4141 16.3215 13.1015 15.7486L14.2935 14.7553C15.2824 13.9312 16.7189 13.9312 17.7078 14.7553L18.8998 15.7486C19.5872 16.3215 20.5161 16.5114 21.3732 16.2542L26.6673 14.666" stroke="white" stroke-width="2.66667" stroke-linecap="round"/>
</svg>
